<svg width="64" height="64" viewBox="0 0 64 64" fill="none" xmlns="http://www.w3.org/2000/svg">
  <defs>
    <linearGradient id="g" x1="9" y1="8" x2="55" y2="57" gradientUnits="userSpaceOnUse">
      <stop stop-color="#C7A7FF"/><stop offset="0.48" stop-color="#8B5CF6"/><stop offset="1" stop-color="#5B21B6"/>
    </linearGradient>
    <filter id="glow" x="-30%" y="-30%" width="160%" height="160%"><feGaussianBlur stdDeviation="2.4" result="b"/><feMerge><feMergeNode in="b"/><feMergeNode in="SourceGraphic"/></feMerge></filter>
  </defs>
  <path d="M15 12.5C15 9.46 17.46 7 20.5 7H35c9.39 0 16 5.05 16 12.7 0 4.65-2.52 8.35-6.58 10.4C49.81 32.1 53 36.5 53 42c0 8.9-7.3 15-18.1 15H20.5A5.5 5.5 0 0 1 15 51.5v-39Z" stroke="url(#g)" stroke-width="5" stroke-linejoin="round" filter="url(#glow)"/>
  <path d="M25 20h11.2c3.1 0 5.3 1.45 5.3 4s-2.2 4-5.3 4H25m0 8h12.7c3.55 0 5.8 1.7 5.8 4.5S41.25 45 37.7 45H25" stroke="url(#g)" stroke-width="4" stroke-linecap="round"/>
  <path d="M27.5 24.5v15l12-7.5-12-7.5Z" fill="#F5F0FF"/>
  <path d="M6 25v14M10 20v24M57 23v18M61 28v8" stroke="#A78BFA" stroke-width="2.5" stroke-linecap="round" opacity=".75"/>
</svg>
